<svg xmlns="http://www.w3.org/2000/svg" width="1100" height="490" viewBox="0 0 1100 490" role="img" aria-label="BioSymphony CryoCore public workflow overview">
  <rect width="1100" height="490" fill="#ffffff"/>
  <text x="44" y="54" font-family="Arial" font-size="30" font-weight="700" fill="#13212e">BioSymphony CryoCore</text>

  <g transform="translate(44 98)">
    <rect width="190" height="132" rx="8" fill="#e8f4f1" stroke="#1f5f55" stroke-width="1.2"/>
    <text x="20" y="36" font-family="Arial" font-size="17" font-weight="700" fill="#163b35">Inputs</text>
    <text x="20" y="66" font-family="Arial" font-size="13" fill="#20303d">Public accessions</text>
    <text x="20" y="88" font-family="Arial" font-size="13" fill="#20303d">Operator datasets</text>
    <text x="20" y="110" font-family="Arial" font-size="13" fill="#20303d">Declared boundaries</text>
  </g>

  <g transform="translate(280 98)">
    <rect width="190" height="132" rx="8" fill="#eef2fb" stroke="#344e85" stroke-width="1.2"/>
    <text x="20" y="36" font-family="Arial" font-size="17" font-weight="700" fill="#24365e">Contracts</text>
    <text x="20" y="66" font-family="Arial" font-size="13" fill="#20303d">Schemas</text>
    <text x="20" y="88" font-family="Arial" font-size="13" fill="#20303d">Stage ledgers</text>
    <text x="20" y="110" font-family="Arial" font-size="13" fill="#20303d">Provider profiles</text>
  </g>

  <g transform="translate(516 98)">
    <rect width="190" height="132" rx="8" fill="#fff5dc" stroke="#806128" stroke-width="1.2"/>
    <text x="20" y="36" font-family="Arial" font-size="17" font-weight="700" fill="#5a4215">Execution Gates</text>
    <text x="20" y="66" font-family="Arial" font-size="13" fill="#20303d">No false success</text>
    <text x="20" y="88" font-family="Arial" font-size="13" fill="#20303d">License posture</text>
    <text x="20" y="110" font-family="Arial" font-size="13" fill="#20303d">Budget + cleanup</text>
  </g>

  <g transform="translate(752 98)">
    <rect width="190" height="132" rx="8" fill="#f3ecfa" stroke="#68458e" stroke-width="1.2"/>
    <text x="20" y="36" font-family="Arial" font-size="17" font-weight="700" fill="#4b2f68">Review Outputs</text>
    <text x="20" y="66" font-family="Arial" font-size="13" fill="#20303d">Density support</text>
    <text x="20" y="88" font-family="Arial" font-size="13" fill="#20303d">Figures + states</text>
    <text x="20" y="110" font-family="Arial" font-size="13" fill="#20303d">Claim boundaries</text>
  </g>

  <g transform="translate(220 162)">
    <line x1="0" y1="0" x2="50" y2="0" stroke="#344" stroke-width="2"/>
    <path d="M40 -7 L52 0 L40 7" fill="none" stroke="#344" stroke-width="2"/>
  </g>
  <g transform="translate(456 162)">
    <line x1="0" y1="0" x2="50" y2="0" stroke="#344" stroke-width="2"/>
    <path d="M40 -7 L52 0 L40 7" fill="none" stroke="#344" stroke-width="2"/>
  </g>
  <g transform="translate(692 162)">
    <line x1="0" y1="0" x2="50" y2="0" stroke="#344" stroke-width="2"/>
    <path d="M40 -7 L52 0 L40 7" fill="none" stroke="#344" stroke-width="2"/>
  </g>

  <g transform="translate(44 290)">
    <rect width="1000" height="126" rx="8" fill="#f8fafc" stroke="#ccd5df"/>
    <text x="24" y="36" font-family="Arial" font-size="18" font-weight="700" fill="#13212e">Use it with an agent</text>
    <text x="24" y="68" font-family="Arial" font-size="14" fill="#20303d">Point your coding agent at the repo, ask what the density supports, and require local checks before claims.</text>
    <text x="24" y="96" font-family="Arial" font-size="13" fill="#46515c">No raw movies, private structures, model weights, credentials, license files, or provider logs belong in git.</text>
  </g>
</svg>
