<svg xmlns="http://www.w3.org/2000/svg" width="1180" height="474" viewBox="0 0 1180 474" font-family="Helvetica, Arial, sans-serif" role="img" aria-label="local-or-cloud-topology"><defs><marker id="ar" markerWidth="9" markerHeight="9" refX="6" refY="4" orient="auto"><path d="M0,0 L7,4 L0,8" fill="none" stroke="#1b1b1b" stroke-width="1.4" stroke-linecap="round" stroke-linejoin="round"/></marker></defs><rect width="1180" height="474" fill="#ffffff"/><text x="36" y="44" font-size="24" fill="#141414" font-weight="700" text-anchor="start">Local or cloud, same shape</text><text x="36" y="68" font-size="13" fill="#6b6b6b" font-weight="400" text-anchor="start">The same CryoCore contracts run across seven provider lanes.</text><g transform="translate(290.0 100)"><rect width="600" height="70" rx="4" fill="#ffffff" stroke="#1b1b1b" stroke-width="2.1"/><text x="14" y="30" font-size="16" fill="#141414" font-weight="700" text-anchor="start">CryoCore contracts (in git)</text><text x="14" y="52" font-size="12.5" fill="#555555" font-weight="400" text-anchor="start">schemas · stage contracts · provider profiles · artifact checks</text></g><g transform="translate(24 240)"><rect width="142" height="104" rx="4" fill="#ffffff" stroke="#1b1b1b" stroke-width="1.4"/><text x="12" y="24" font-size="14" fill="#141414" font-weight="700" text-anchor="start">Laptop</text><text x="12" y="46" font-size="12.5" fill="#555555" font-weight="400" text-anchor="start">CPU or local GPU</text><text x="12" y="64" font-size="12.5" fill="#555555" font-weight="400" text-anchor="start">public-accession</text><text x="12" y="82" font-size="12.5" fill="#555555" font-weight="400" text-anchor="start">demos + validators</text></g><g transform="translate(189 240)"><rect width="142" height="104" rx="4" fill="#ffffff" stroke="#1b1b1b" stroke-width="1.4"/><text x="12" y="24" font-size="14" fill="#141414" font-weight="700" text-anchor="start">RunPod</text><text x="12" y="46" font-size="12.5" fill="#555555" font-weight="400" text-anchor="start">GPU pods</text><text x="12" y="64" font-size="12.5" fill="#555555" font-weight="400" text-anchor="start">bridge manifests</text><text x="12" y="82" font-size="12.5" fill="#555555" font-weight="400" text-anchor="start">stage contracts</text></g><g transform="translate(354 240)"><rect width="142" height="104" rx="4" fill="#ffffff" stroke="#1b1b1b" stroke-width="1.4"/><text x="12" y="24" font-size="14" fill="#141414" font-weight="700" text-anchor="start">AWS Batch</text><text x="12" y="46" font-size="12.5" fill="#555555" font-weight="400" text-anchor="start">queue-based</text><text x="12" y="64" font-size="12.5" fill="#555555" font-weight="400" text-anchor="start">scale-out fanout</text><text x="12" y="82" font-size="12.5" fill="#555555" font-weight="400" text-anchor="start">contract-only today</text></g><g transform="translate(519 240)"><rect width="142" height="104" rx="4" fill="#ffffff" stroke="#1b1b1b" stroke-width="1.4"/><text x="12" y="24" font-size="14" fill="#141414" font-weight="700" text-anchor="start">AWS EC2</text><text x="12" y="46" font-size="12.5" fill="#555555" font-weight="400" text-anchor="start">on-demand GPU VM</text><text x="12" y="64" font-size="12.5" fill="#555555" font-weight="400" text-anchor="start">instance + volume</text><text x="12" y="82" font-size="12.5" fill="#555555" font-weight="400" text-anchor="start">no-download posture</text></g><g transform="translate(684 240)"><rect width="142" height="104" rx="4" fill="#ffffff" stroke="#1b1b1b" stroke-width="1.4"/><text x="12" y="24" font-size="14" fill="#141414" font-weight="700" text-anchor="start">SSH / HPC</text><text x="12" y="46" font-size="12.5" fill="#555555" font-weight="400" text-anchor="start">Slurm institution</text><text x="12" y="64" font-size="12.5" fill="#555555" font-weight="400" text-anchor="start">site storage</text><text x="12" y="82" font-size="12.5" fill="#555555" font-weight="400" text-anchor="start">license review</text></g><g transform="translate(849 240)"><rect width="142" height="104" rx="4" fill="#ffffff" stroke="#1b1b1b" stroke-width="1.4"/><text x="12" y="24" font-size="14" fill="#141414" font-weight="700" text-anchor="start">Neocloud</text><text x="12" y="46" font-size="12.5" fill="#555555" font-weight="400" text-anchor="start">Lambda + GPU pods</text><text x="12" y="64" font-size="12.5" fill="#555555" font-weight="400" text-anchor="start">alternative providers</text><text x="12" y="82" font-size="12.5" fill="#555555" font-weight="400" text-anchor="start">adapter contracts</text></g><g transform="translate(1014 240)"><rect width="142" height="104" rx="4" fill="#ffffff" stroke="#1b1b1b" stroke-width="1.4"/><text x="12" y="24" font-size="14" fill="#141414" font-weight="700" text-anchor="start">Generic VM</text><text x="12" y="46" font-size="12.5" fill="#555555" font-weight="400" text-anchor="start">portable fallback</text><text x="12" y="64" font-size="12.5" fill="#555555" font-weight="400" text-anchor="start">cloud-VM pattern</text><text x="12" y="82" font-size="12.5" fill="#555555" font-weight="400" text-anchor="start">adapter contracts</text></g><line x1="590.0" y1="170" x2="590.0" y2="206" stroke="#1b1b1b" stroke-width="1.4"/><line x1="95.0" y1="206" x2="1085.0" y2="206" stroke="#1b1b1b" stroke-width="1.4"/><line x1="95.0" y1="206" x2="95.0" y2="240" stroke="#1b1b1b" stroke-width="1.4" marker-end="url(#ar)"/><line x1="260.0" y1="206" x2="260.0" y2="240" stroke="#1b1b1b" stroke-width="1.4" marker-end="url(#ar)"/><line x1="425.0" y1="206" x2="425.0" y2="240" stroke="#1b1b1b" stroke-width="1.4" marker-end="url(#ar)"/><line x1="590.0" y1="206" x2="590.0" y2="240" stroke="#1b1b1b" stroke-width="1.4" marker-end="url(#ar)"/><line x1="755.0" y1="206" x2="755.0" y2="240" stroke="#1b1b1b" stroke-width="1.4" marker-end="url(#ar)"/><line x1="920.0" y1="206" x2="920.0" y2="240" stroke="#1b1b1b" stroke-width="1.4" marker-end="url(#ar)"/><line x1="1085.0" y1="206" x2="1085.0" y2="240" stroke="#1b1b1b" stroke-width="1.4" marker-end="url(#ar)"/><line x1="95.0" y1="344" x2="95.0" y2="374" stroke="#1b1b1b" stroke-width="1.4"/><line x1="260.0" y1="344" x2="260.0" y2="374" stroke="#1b1b1b" stroke-width="1.4"/><line x1="425.0" y1="344" x2="425.0" y2="374" stroke="#1b1b1b" stroke-width="1.4"/><line x1="590.0" y1="344" x2="590.0" y2="374" stroke="#1b1b1b" stroke-width="1.4"/><line x1="755.0" y1="344" x2="755.0" y2="374" stroke="#1b1b1b" stroke-width="1.4"/><line x1="920.0" y1="344" x2="920.0" y2="374" stroke="#1b1b1b" stroke-width="1.4"/><line x1="1085.0" y1="344" x2="1085.0" y2="374" stroke="#1b1b1b" stroke-width="1.4"/><line x1="95.0" y1="374" x2="1085.0" y2="374" stroke="#1b1b1b" stroke-width="1.4"/><line x1="590.0" y1="374" x2="590.0" y2="404" stroke="#1b1b1b" stroke-width="1.4" marker-end="url(#ar)"/><g transform="translate(320.0 408)"><rect width="540" height="46" rx="4" fill="#ffffff" stroke="#1b1b1b" stroke-width="1.4"/></g><text x="590.0" y="436" font-size="15" fill="#141414" font-weight="700" text-anchor="middle">Same review shape, same artifact proof</text></svg>
